<svg width="49" height="49" fill="none" xmlns="http://www.w3.org/2000/svg"><circle cx="24.5" cy="24.5" r="24.5" fill="#1BCEF6"/><path d="M12.73 32V17.454h5.57c1.051 0 1.925.166 2.62.498.701.326 1.225.774 1.57 1.342.35.568.526 1.212.526 1.932 0 .592-.114 1.098-.341 1.52a2.867 2.867 0 0 1-.916 1.015c-.384.26-.812.448-1.286.561v.143a3.148 3.148 0 0 1 1.485.475 3.3 3.3 0 0 1 1.171 1.208c.303.52.455 1.15.455 1.889 0 .753-.182 1.43-.547 2.031-.364.597-.914 1.068-1.648 1.413-.734.346-1.657.519-2.77.519h-5.887Zm2.636-2.202H18.2c.956 0 1.645-.182 2.066-.547.426-.369.64-.842.64-1.42a2.175 2.175 0 0 0-1.23-1.989c-.392-.203-.861-.305-1.405-.305h-2.905v4.261Zm0-6.157h2.606c.455 0 .864-.083 1.229-.249.364-.17.651-.41.86-.717.212-.313.319-.682.319-1.108 0-.564-.199-1.028-.597-1.392-.393-.365-.977-.547-1.754-.547h-2.663v4.013Zm22.36-1.279h-2.657a3.305 3.305 0 0 0-.419-1.157 3.112 3.112 0 0 0-.76-.867 3.166 3.166 0 0 0-1.037-.533 4.045 4.045 0 0 0-1.243-.184c-.79 0-1.491.199-2.102.596-.61.393-1.089.971-1.434 1.733-.346.758-.519 1.684-.519 2.777 0 1.113.173 2.05.519 2.813.35.757.828 1.33 1.434 1.719.611.383 1.31.575 2.095.575.436 0 .843-.057 1.222-.17a3.344 3.344 0 0 0 1.03-.52 3.165 3.165 0 0 0 1.215-1.974l2.656.015a5.73 5.73 0 0 1-.647 1.946 5.737 5.737 0 0 1-1.285 1.605c-.53.46-1.15.819-1.861 1.08-.71.255-1.499.383-2.365.383-1.279 0-2.42-.296-3.423-.888-1.004-.592-1.795-1.446-2.373-2.564-.577-1.117-.866-2.457-.866-4.02 0-1.567.291-2.907.873-4.02.583-1.117 1.376-1.972 2.38-2.564 1.004-.591 2.14-.887 3.409-.887.81 0 1.562.113 2.258.34a5.787 5.787 0 0 1 1.861 1.002c.545.436.992.97 1.343 1.605.355.63.587 1.35.696 2.16Z" fill="#fff"/></svg>