<svg width="28" height="29" fill="none" xmlns="http://www.w3.org/2000/svg"><path d="M10.5 5.167H5.833c-.644 0-1.166.522-1.166 1.166V11c0 .644.522 1.167 1.166 1.167H10.5c.644 0 1.167-.523 1.167-1.167V6.333c0-.644-.523-1.166-1.167-1.166Zm11.667 0H17.5c-.644 0-1.167.522-1.167 1.166V11c0 .644.523 1.167 1.167 1.167h4.667c.644 0 1.166-.523 1.166-1.167V6.333c0-.644-.522-1.166-1.166-1.166ZM10.5 16.833H5.833c-.644 0-1.166.523-1.166 1.167v4.667c0 .644.522 1.166 1.166 1.166H10.5c.644 0 1.167-.522 1.167-1.166V18c0-.644-.523-1.167-1.167-1.167Zm11.667 0H17.5c-.644 0-1.167.523-1.167 1.167v4.667c0 .644.523 1.166 1.167 1.166h4.667c.644 0 1.166-.522 1.166-1.166V18c0-.644-.522-1.167-1.166-1.167Z" fill="#3279E3" stroke="#3279E3" stroke-width="2" stroke-linecap="round" stroke-linejoin="round"/></svg>