<svg width="24" height="24" fill="none" xmlns="http://www.w3.org/2000/svg"><rect width="24" height="24" rx="12" fill="#DADADA"/><path d="M12 7.084h2.458c.578 0 .867.145 1.084.217.29.145.506.217.723.434.217.217.361.434.434.723.072.217.144.506.217 1.084v4.916c0 .578-.145.867-.217 1.084-.145.29-.217.506-.434.723-.217.217-.434.361-.723.434-.217.072-.506.144-1.084.217H9.542c-.578 0-.867-.145-1.084-.217-.29-.145-.506-.217-.723-.434-.217-.217-.362-.434-.434-.723-.072-.217-.144-.506-.217-1.084V9.542c0-.578.145-.867.217-1.084.145-.29.217-.506.434-.723.217-.217.434-.362.723-.434.217-.072.506-.144 1.084-.217H12ZM12 6H9.542c-.65 0-1.084.145-1.446.29a3.156 3.156 0 0 0-1.084.722c-.361.361-.506.65-.723 1.084-.144.362-.217.796-.289 1.446v4.916c0 .65.145 1.084.29 1.446.144.361.36.723.722 1.084.361.361.65.506 1.084.723.362.144.796.217 1.446.289h4.916c.65 0 1.084-.145 1.446-.29a3.156 3.156 0 0 0 1.084-.722c.361-.361.506-.65.723-1.084.144-.362.217-.796.289-1.446V9.542c0-.65-.145-1.084-.29-1.446a3.156 3.156 0 0 0-.722-1.084c-.361-.361-.65-.506-1.084-.723-.362-.144-.796-.217-1.446-.289H12Z" fill="#fff"/><path d="M12 8.892A3.085 3.085 0 0 0 8.892 12 3.085 3.085 0 0 0 12 15.108 3.085 3.085 0 0 0 15.108 12 3.085 3.085 0 0 0 12 8.892Zm0 5.132A2.02 2.02 0 0 1 9.976 12 2.02 2.02 0 0 1 12 9.976 2.02 2.02 0 0 1 14.024 12c0 1.084-.94 2.024-2.024 2.024Zm3.18-4.482a.723.723 0 1 0 0-1.446.723.723 0 0 0 0 1.446Z" fill="#fff"/></svg>