<svg width="16" height="16" fill="none" xmlns="http://www.w3.org/2000/svg"><path d="M15.477 12.748c0 .27-.06.547-.187.817-.127.27-.292.525-.51.765a3.381 3.381 0 0 1-1.23.885c-.45.188-.938.285-1.463.285-.764 0-1.582-.18-2.444-.547a13.173 13.173 0 0 1-2.58-1.486 21.563 21.563 0 0 1-2.46-2.1A21.31 21.31 0 0 1 2.51 8.915c-.615-.855-1.11-1.71-1.47-2.557C.68 5.502.5 4.684.5 3.905c0-.51.09-.997.27-1.447.18-.458.465-.878.863-1.253C2.112.732 2.638.5 3.192.5c.21 0 .42.045.607.135.195.09.368.225.503.42l1.74 2.452c.135.188.232.36.3.525.067.158.104.316.104.458 0 .18-.052.36-.157.532-.098.173-.24.353-.42.533l-.57.593a.401.401 0 0 0-.12.3c0 .06.008.112.022.172.023.06.045.105.06.15.136.248.368.57.698.96.338.39.697.787 1.088 1.185.404.398.795.765 1.192 1.103.39.33.713.554.967.69.038.014.083.037.135.06.06.022.12.03.188.03a.413.413 0 0 0 .308-.128l.57-.563c.187-.187.367-.33.54-.42a.999.999 0 0 1 .532-.157c.143 0 .293.03.457.098a2.9 2.9 0 0 1 .526.292l2.482 1.762c.195.136.33.293.412.48.075.188.12.375.12.585Z" fill="#4387D6"/></svg>