<svg width="24" height="24" fill="none" xmlns="http://www.w3.org/2000/svg"><rect width="24" height="24" rx="12" fill="#DADADA"/><path fill-rule="evenodd" clip-rule="evenodd" d="M6.758 16.234a1.54 1.54 0 0 1-.627-.361 1.492 1.492 0 0 1-.385-.602c-.44-1.179-.57-6.099.277-7.07.283-.316.681-.51 1.11-.542 2.275-.238 9.306-.207 10.113.08a1.557 1.557 0 0 1 .995.932c.481 1.218.497 5.644-.065 6.815-.15.304-.4.551-.71.7-.848.414-9.583.406-10.708.048Zm3.613-2.309 4.077-2.07-4.077-2.086v4.156Z" fill="#fff"/></svg>